<?xml version="1.0" standalone="no"?><svg xmlns="http://www.w3.org/2000/svg" viewBox="0 0 1440 320"><path fill="#b2b1b9" fill-opacity="1" d="M0,96L0,224L37.9,224L37.9,288L75.8,288L75.8,192L113.7,192L113.7,288L151.6,288L151.6,160L189.5,160L189.5,96L227.4,96L227.4,64L265.3,64L265.3,192L303.2,192L303.2,256L341.1,256L341.1,96L378.9,96L378.9,0L416.8,0L416.8,288L454.7,288L454.7,256L492.6,256L492.6,224L530.5,224L530.5,128L568.4,128L568.4,288L606.3,288L606.3,288L644.2,288L644.2,128L682.1,128L682.1,288L720,288L720,96L757.9,96L757.9,96L795.8,96L795.8,288L833.7,288L833.7,224L871.6,224L871.6,224L909.5,224L909.5,256L947.4,256L947.4,192L985.3,192L985.3,224L1023.2,224L1023.2,128L1061.1,128L1061.1,160L1098.9,160L1098.9,192L1136.8,192L1136.8,288L1174.7,288L1174.7,32L1212.6,32L1212.6,192L1250.5,192L1250.5,320L1288.4,320L1288.4,288L1326.3,288L1326.3,128L1364.2,128L1364.2,288L1402.1,288L1402.1,320L1440,320L1440,320L1402.1,320L1402.1,320L1364.2,320L1364.2,320L1326.3,320L1326.3,320L1288.4,320L1288.4,320L1250.5,320L1250.5,320L1212.6,320L1212.6,320L1174.7,320L1174.7,320L1136.8,320L1136.8,320L1098.9,320L1098.9,320L1061.1,320L1061.1,320L1023.2,320L1023.2,320L985.3,320L985.3,320L947.4,320L947.4,320L909.5,320L909.5,320L871.6,320L871.6,320L833.7,320L833.7,320L795.8,320L795.8,320L757.9,320L757.9,320L720,320L720,320L682.1,320L682.1,320L644.2,320L644.2,320L606.3,320L606.3,320L568.4,320L568.4,320L530.5,320L530.5,320L492.6,320L492.6,320L454.7,320L454.7,320L416.8,320L416.8,320L378.9,320L378.9,320L341.1,320L341.1,320L303.2,320L303.2,320L265.3,320L265.3,320L227.4,320L227.4,320L189.5,320L189.5,320L151.6,320L151.6,320L113.7,320L113.7,320L75.8,320L75.8,320L37.9,320L37.9,320L0,320L0,320Z"></path></svg>